<?xml version="1.0" encoding="utf-8"?>
<!-- Svg Vector Icons : http://www.onlinewebfonts.com/icon -->
<!DOCTYPE svg PUBLIC "-//W3C//DTD SVG 1.1//EN" "http://www.w3.org/Graphics/SVG/1.1/DTD/svg11.dtd">
<svg version="1.1" xmlns="http://www.w3.org/2000/svg" xmlns:xlink="http://www.w3.org/1999/xlink" x="0px" y="0px" viewBox="0 0 1000 1000" enable-background="new 0 0 1000 1000" xml:space="preserve">
<metadata> Svg Vector Icons : http://www.onlinewebfonts.com/icon </metadata>
<g><g transform="translate(0.000000,511.000000) scale(0.100000,-0.100000)"><path d="M4407.4,4965.9C2611.6,4647.8,1339.3,2959,1547.6,1163.2C1685.5-19,2389.2-1032.3,3441.9-1564.3c472.9-239.2,886.7-343.4,1429.9-368.7c979.5-42.2,1877.5,312.5,2578.3,1016.1c689.6,689.6,1024.6,1497.4,1024.6,2468.5c0,1486.2-959.8,2811.9-2381.3,3287.6C5600.8,5005.3,4916.9,5056,4407.4,4965.9z M5690.9,4256.6C6738,3977.9,7529,3144.8,7748.5,2086.4c45-219.6,53.5-340.6,42.2-650.2c-16.9-450.4-76-703.7-256.2-1083.7C7377,20.4,7275.6-126,7019.5-396.2c-568.6-596.7-1353.9-909.2-2158.9-861.3c-1272.3,76-2305.3,951.4-2595.2,2201.1c-81.6,343.4-70.4,926.1,22.5,1280.7c292.7,1103.4,1187.8,1911.2,2316.5,2094.2C4807.1,4349.5,5479.8,4312.9,5690.9,4256.6z"/><path d="M5499.5,2061.1c-267.4-351.8-515.1-675.5-551.7-717.8l-61.9-78.8l-405.3,309.6c-219.6,171.7-411,312.4-422.2,312.4c-22.5,0-368.7-456-368.7-486.9c-2.8-22.5,1294.8-1033,1322.9-1030.2c14.1,0,1469.3,1902.8,1486.2,1942.2c8.4,19.7-461.6,391.2-495.4,391.2C5992.1,2700,5764.1,2412.9,5499.5,2061.1z"/><path d="M2943.7-1665.6c-160.4-430.7-883.8-2510.8-875.4-2522c8.5-5.6,284.3,33.8,616.4,92.9l599.6,104.2l396.9-405.3c219.5-219.5,402.5-396.9,410.9-388.4c5.6,8.4,208.3,582.7,453.2,1277.9c320.9,906.3,436.3,1269.4,411,1283.5c-16.9,11.3-129.5,28.1-247.7,36.6c-456,31-973.9,180.2-1438.3,408.1c-149.2,73.2-278.7,135.1-289.9,140.7C2966.2-1631.8,2952.2-1643.1,2943.7-1665.6z"/><path d="M6799.9-1750.1c-444.7-228-1002.1-391.2-1500.3-439.1c-143.6-14.1-267.4-31-273-36.6c-8.4-11.3,672.7-1976,847.2-2443.2l47.9-121l396.9,396.9l399.7,399.7l599.6-101.3c332.1-56.3,608-92.9,616.4-84.4c16.9,14.1-872.6,2547.3-895.1,2544.5C7030.7-1634.6,6923.8-1685.3,6799.9-1750.1z"/></g></g>
</svg>